<svg width="24" height="24" viewBox="0 0 24 24" fill="none" xmlns="http://www.w3.org/2000/svg">
<path d="M5.43234 3.59975C6.24004 3.13342 7.23517 3.13342 8.04287 3.59975C8.34283 3.77292 8.61375 4.04425 8.95542 4.38643L9.02207 4.45314L10.7762 6.20727C11.2046 6.63572 11.4738 6.90258 11.6953 7.07161C11.8995 7.22743 11.973 7.22796 12 7.22796C12.027 7.22796 12.1005 7.22743 12.3047 7.07161C12.5262 6.90258 12.7954 6.63572 13.2238 6.20727L14.9779 4.45314L15.0446 4.38642C15.3863 4.04425 15.6572 3.77292 15.9571 3.59975C16.7648 3.13342 17.76 3.13342 18.5677 3.59975C18.8676 3.77292 19.1385 4.04425 19.4802 4.38642L19.5469 4.45314L19.6136 4.5198C19.9558 4.86146 20.2271 5.13238 20.4003 5.43233C20.8666 6.24004 20.8666 7.23517 20.4003 8.04287C20.2271 8.34283 19.9557 8.61375 19.6136 8.95542L19.5469 9.02207L17.7927 10.7762C17.3643 11.2046 17.0974 11.4738 16.9284 11.6953C16.7726 11.8995 16.772 11.973 16.772 12C16.772 12.027 16.7726 12.1005 16.9284 12.3047C17.0974 12.5262 17.3643 12.7954 17.7927 13.2238L19.5469 14.9779L19.6136 15.0446C19.9558 15.3863 20.2271 15.6572 20.4003 15.9571C20.8666 16.7648 20.8666 17.76 20.4003 18.5677C20.2271 18.8676 19.9558 19.1385 19.6136 19.4802L19.5469 19.5469L19.4802 19.6136C19.1385 19.9558 18.8676 20.2271 18.5677 20.4003C17.76 20.8666 16.7648 20.8666 15.9571 20.4003C15.6572 20.2271 15.3863 19.9558 15.0446 19.6136L15.0446 19.6136L14.9779 19.5469L13.2238 17.7927C12.7954 17.3643 12.5262 17.0974 12.3047 16.9284C12.1005 16.7726 12.027 16.772 12 16.772C11.973 16.772 11.8995 16.7726 11.6953 16.9284C11.4738 17.0974 11.2046 17.3643 10.7762 17.7927L9.02207 19.5469L8.95541 19.6136C8.61375 19.9558 8.34283 20.2271 8.04287 20.4003C7.23517 20.8666 6.24004 20.8666 5.43233 20.4003C5.13238 20.2271 4.86146 19.9558 4.5198 19.6136L4.45314 19.5469L4.38642 19.4802C4.04425 19.1385 3.77292 18.8676 3.59975 18.5677C3.13342 17.76 3.13342 16.7648 3.59975 15.9571C3.77292 15.6572 4.04424 15.3863 4.38641 15.0446L4.38643 15.0446L4.45314 14.9779L6.20727 13.2238C6.63572 12.7954 6.90258 12.5262 7.07161 12.3047C7.22743 12.1005 7.22796 12.027 7.22796 12C7.22796 11.973 7.22743 11.8995 7.07161 11.6953C6.90258 11.4738 6.63572 11.2046 6.20727 10.7762L4.45314 9.02207L4.38643 8.95542C4.04425 8.61375 3.77292 8.34283 3.59975 8.04287C3.13342 7.23517 3.13342 6.24004 3.59975 5.43234C3.77292 5.13238 4.04425 4.86146 4.38643 4.51979L4.45314 4.45314L4.51979 4.38643C4.86146 4.04425 5.13238 3.77292 5.43234 3.59975Z" fill="#141B34"/>
</svg>
